<svg width="24" height="24" viewBox="0 0 24 24" fill="none" xmlns="http://www.w3.org/2000/svg">
<path d="M8.78793 19.9582V17.0332C8.78793 16.2865 9.44004 15.6813 10.2445 15.6813H13.185C13.5713 15.6813 13.9417 15.8237 14.2149 16.0772C14.488 16.3308 14.6415 16.6746 14.6415 17.0332V19.9582C14.6391 20.2686 14.7702 20.5671 15.0058 20.7874C15.2414 21.0077 15.562 21.1316 15.8965 21.1316H17.9026C18.8396 21.1338 19.739 20.7899 20.4024 20.1758C21.0658 19.5616 21.4386 18.7277 21.4386 17.858V9.52523C21.4386 8.82272 21.1031 8.15635 20.5225 7.70563L13.698 2.64646C12.5108 1.75942 10.8099 1.78806 9.65818 2.71449L2.98933 7.70563C2.38134 8.14306 2.01796 8.81141 2 9.52523V17.8495C2 19.6621 3.5831 21.1316 5.53595 21.1316H7.4963C8.19091 21.1316 8.75542 20.6114 8.76045 19.9667L8.78793 19.9582Z" fill="#E32726"/>
</svg>
