<svg width="24" height="24" viewBox="0 0 24 24" fill="none" xmlns="http://www.w3.org/2000/svg">
<g clip-path="url(#clip0_263_32964)">
<path d="M13.1267 14.56L14.5567 13.13L20.9967 19.573L19.5697 21L13.1267 14.56ZM17.4197 8.83001L20.2797 5.97001C16.3297 2.02001 9.92974 2.01001 5.97974 5.95001C9.90974 4.65001 14.2897 5.70001 17.4197 8.83001V8.83001ZM5.94974 5.98001C2.00974 9.93001 2.01974 16.33 5.96974 20.28L8.82974 17.42C5.69974 14.29 4.64974 9.91001 5.94974 5.98001ZM5.96974 5.96001L5.95974 5.97001C5.57974 8.98001 7.12974 12.85 10.2597 15.99L15.9897 10.26C12.8597 7.13001 8.97974 5.58001 5.96974 5.96001V5.96001Z" fill="#3A99DB"/>
</g>
<defs>
<clipPath id="clip0_263_32964">
<rect width="24" height="24" fill="white"/>
</clipPath>
</defs>
</svg>
