<svg id="Layer_5" data-name="Layer 5" xmlns="http://www.w3.org/2000/svg" viewBox="0 0 1385.74 283.88">
  <title>logo payung</title>
  <g>
    <g>
      <g>
        <path d="M31.22,263.83a15,15,0,0,1-4.56,11.05,15,15,0,0,1-11,4.56,15,15,0,0,1-11.06-4.56A15.06,15.06,0,0,1,0,263.83V166.49a60.57,60.57,0,0,1,18.42-44.44,60.56,60.56,0,0,1,44.45-18.43,60.69,60.69,0,0,1,44.55,18.43,60.57,60.57,0,0,1,18.42,44.44q0,26.13-18.42,44.55a60.69,60.69,0,0,1-44.55,18.43,61.55,61.55,0,0,1-31.65-8.57Zm9.32-119.78a31.67,31.67,0,0,0,0,44.88,30.24,30.24,0,0,0,22.33,9.32,30.59,30.59,0,0,0,22.43-9.32,31.67,31.67,0,0,0,0-44.88,30.76,30.76,0,0,0-22.43-9.21A30.4,30.4,0,0,0,40.54,144.05Z" fill="#3a7792"/>
        <path d="M263.61,213.86A15.74,15.74,0,0,1,248,229.47q-10.19,0-14.31-9.33a61.91,61.91,0,0,1-33.06,9.33,62.91,62.91,0,0,1-62.86-62.87q0-26.13,18.42-44.55a60.56,60.56,0,0,1,44.44-18.43q26.13,0,44.55,18.43t18.43,44.55Zm-63-79a30.27,30.27,0,0,0-22.33,9.32A31.7,31.7,0,0,0,223.07,189a31.76,31.76,0,0,0-22.44-54.2Z" fill="#3a7792"/>
        <path d="M375.58,119.23a15.61,15.61,0,1,1,31.22,0V221a62.92,62.92,0,0,1-62.87,62.87,62.82,62.82,0,0,1-51.27-26.34,15.35,15.35,0,0,1-2.71-11.6,15.75,15.75,0,0,1,18-12.79A14.44,14.44,0,0,1,318,239.44a31.51,31.51,0,0,0,11.38,9.75,31.14,31.14,0,0,0,14.53,3.47,31.82,31.82,0,0,0,31.65-31.76,61.6,61.6,0,0,1-31.65,8.57q-26.13,0-44.55-18.43T281,166.49V119.23a15.61,15.61,0,1,1,31.22,0v47.26a31.82,31.82,0,0,0,31.76,31.76,30.27,30.27,0,0,0,22.33-9.32,30.62,30.62,0,0,0,9.32-22.44Z" fill="#3a7792"/>
        <path d="M518.77,119.23a15.72,15.72,0,0,1,15.61-15.61A15.92,15.92,0,0,1,550,119.23V166.6a62.92,62.92,0,0,1-125.84,0V119.23a15.61,15.61,0,0,1,31.22,0V166.6a31.71,31.71,0,0,0,63.41,0Z" fill="#3a7792"/>
        <path d="M662,119.23a15.49,15.49,0,0,1,26.56-11,14.76,14.76,0,0,1,4.66,11V166.6A60.54,60.54,0,0,1,674.74,211q-18.42,18.44-44.55,18.43a62.91,62.91,0,0,1-62.86-62.87V119.23a15.61,15.61,0,0,1,31.21,0V166.6a31.71,31.71,0,0,0,63.41,0Z" fill="#3a7792"/>
        <path d="M836.36,213.86a15.74,15.74,0,0,1-15.61,15.61,15.55,15.55,0,0,1-15.61-15.61V166.6a31.82,31.82,0,0,0-31.76-31.76,30.25,30.25,0,0,0-22.33,9.32,30.62,30.62,0,0,0-9.32,22.44v47.26a15.61,15.61,0,1,1-31.22,0V166.6q0-26.13,18.43-44.55A62.93,62.93,0,0,1,836.36,166.6Z" fill="#3a7792"/>
        <path d="M975.21,219.49a60.56,60.56,0,0,1-18.43,44.44q-18.42,18.44-44.55,18.43a62.59,62.59,0,0,1-47.69-22,15.48,15.48,0,0,1,1.62-22,14.89,14.89,0,0,1,11.39-3.68,15.28,15.28,0,0,1,10.62,5.42,31,31,0,0,0,24.06,11,31.69,31.69,0,0,0,31.65-30.24,62.13,62.13,0,0,1-31.65,8.46,62.92,62.92,0,0,1-62.87-62.87,62.92,62.92,0,0,1,62.87-62.87q26.12,0,44.55,18.43a60.58,60.58,0,0,1,18.43,44.44Zm-63-84.65a31.63,31.63,0,0,0-31.65,31.65,31.74,31.74,0,1,0,31.65-31.65Z" fill="#3a7792"/>
      </g>
      <path d="M428.9,72.5S480.25-.75,562.56,0,699.86,72.5,699.86,72.5s-52.44-33.14-96,0c0,0-44-36.29-89.67,0C514.23,72.5,473.09,36.21,428.9,72.5Z" fill="#f8c10a"/>
      <text transform="translate(979.87 134.91)" font-size="56.96" fill="#3a7792" font-family="Arial-BoldMT, Arial" font-weight="700">®</text>
    </g>
    <g>
      <path d="M1064.25,224.19a4.39,4.39,0,0,1-4.51-4.51V179.36a25.44,25.44,0,0,1,3.28-12.55,23.59,23.59,0,0,1,8.66-8.8,24.41,24.41,0,0,1,33.56,8.8,24.58,24.58,0,0,1,3.22,12.55,26,26,0,0,1-3,12.52,22.9,22.9,0,0,1-8.09,8.75,22.35,22.35,0,0,1-21.18,1.06,22.79,22.79,0,0,1-7.47-5.88v23.87a4.44,4.44,0,0,1-1.24,3.23A4.3,4.3,0,0,1,1064.25,224.19Zm19.81-28.29a15.05,15.05,0,0,0,8-2.17,15.82,15.82,0,0,0,5.61-5.92,18.37,18.37,0,0,0,0-17,15.82,15.82,0,0,0-5.61-5.92,15.92,15.92,0,0,0-16,0,15.32,15.32,0,0,0-5.62,5.92,17.71,17.71,0,0,0-2,8.53,17.54,17.54,0,0,0,2,8.45,15.32,15.32,0,0,0,5.62,5.92A15.08,15.08,0,0,0,1084.06,195.9Z" fill="#3a7792"/>
      <path d="M1126.15,203.5a4.53,4.53,0,0,1-3.28-1.1,4.43,4.43,0,0,1-1.14-3.32V159.56a4,4,0,0,1,4.42-4.42,3.91,3.91,0,0,1,4.42,4.42v39.52a4.5,4.5,0,0,1-1.11,3.27A4.38,4.38,0,0,1,1126.15,203.5Zm-.09-30.24a17.64,17.64,0,0,1,2.61-9.5,19,19,0,0,1,7-6.68,19.54,19.54,0,0,1,9.72-2.47q5.31,0,7.92,1.72c1.73,1.15,2.4,2.52,2,4.11a3.31,3.31,0,0,1-2.75,2.74,5.3,5.3,0,0,1-2.12-.08,24.71,24.71,0,0,0-10.17-.18,13.8,13.8,0,0,0-7.11,3.62,9.19,9.19,0,0,0-2.61,6.72Z" fill="#3a7792"/>
      <path d="M1169.91,147.27a5.91,5.91,0,1,1,4.11-1.73A5.62,5.62,0,0,1,1169.91,147.27Zm0,56.23a4.39,4.39,0,0,1-4.51-4.51V159.65a4.31,4.31,0,0,1,1.29-3.27,4.48,4.48,0,0,1,7.73,3.27V199a4.47,4.47,0,0,1-1.23,3.23A4.34,4.34,0,0,1,1169.91,203.5Z" fill="#3a7792"/>
      <path d="M1215.36,203.86a24,24,0,0,1-12.38-3.23,23.59,23.59,0,0,1-8.66-8.8,25.44,25.44,0,0,1-3.28-12.55V139a4.35,4.35,0,0,1,1.29-3.28,4.48,4.48,0,0,1,7.73,3.28v23.87a22.85,22.85,0,0,1,7.48-5.88,22.33,22.33,0,0,1,21.17,1.06,22.9,22.9,0,0,1,8.09,8.75,26,26,0,0,1,3,12.52,24.58,24.58,0,0,1-3.22,12.55,23.8,23.8,0,0,1-21.18,12Zm0-8a15.05,15.05,0,0,0,8.05-2.17,15.59,15.59,0,0,0,5.61-6,17.32,17.32,0,0,0,2.08-8.48,17,17,0,0,0-2.08-8.49,15.77,15.77,0,0,0-5.61-5.88,15.92,15.92,0,0,0-16.05,0,15.35,15.35,0,0,0-5.62,5.88,17.42,17.42,0,0,0-2,8.49,17.74,17.74,0,0,0,2,8.48,15.16,15.16,0,0,0,13.62,8.14Z" fill="#3a7792"/>
      <path d="M1273.19,203.86a21.32,21.32,0,0,1-11.59-3.23,23,23,0,0,1-8.09-8.75,26.16,26.16,0,0,1-3-12.52,24.59,24.59,0,0,1,3.23-12.55,23.9,23.9,0,0,1,8.75-8.8,24.19,24.19,0,0,1,12.42-3.23,23.8,23.8,0,0,1,21.09,12,24.59,24.59,0,0,1,3.23,12.55h-3.45a26.16,26.16,0,0,1-3,12.52,23,23,0,0,1-8.09,8.75A21.31,21.31,0,0,1,1273.19,203.86Zm1.76-8a15.05,15.05,0,0,0,8-2.17,15.41,15.41,0,0,0,5.57-5.92,17.42,17.42,0,0,0,2-8.45,17.6,17.6,0,0,0-2-8.53,15.41,15.41,0,0,0-5.57-5.92,15.92,15.92,0,0,0-16,0,15.64,15.64,0,0,0-5.66,5.92,17.4,17.4,0,0,0-2.07,8.53,17.23,17.23,0,0,0,2.07,8.45,15.64,15.64,0,0,0,5.66,5.92A15.13,15.13,0,0,0,1275,195.9Zm19.81,7.69a4.38,4.38,0,0,1-4.51-4.51V185.55l1.68-9.37,7.34,3.18v19.72a4.38,4.38,0,0,1-4.51,4.51Z" fill="#3a7792"/>
      <path d="M1334.46,203.86a24.16,24.16,0,0,1-12.42-3.23,23.78,23.78,0,0,1-8.76-8.8,24.58,24.58,0,0,1-3.22-12.55,26,26,0,0,1,3-12.52,22.9,22.9,0,0,1,8.09-8.75,21.31,21.31,0,0,1,11.58-3.23,21.78,21.78,0,0,1,17.07,8.05V139a4.34,4.34,0,0,1,1.28-3.28,4.49,4.49,0,0,1,7.74,3.28v40.32a24.59,24.59,0,0,1-3.23,12.55,23.8,23.8,0,0,1-21.09,12Zm0-8a15.05,15.05,0,0,0,8-2.17,15.35,15.35,0,0,0,5.57-6,17.74,17.74,0,0,0,2-8.48,17.42,17.42,0,0,0-2-8.49,15.52,15.52,0,0,0-5.57-5.88,15.92,15.92,0,0,0-16,0,15.6,15.6,0,0,0-5.66,5.88,17,17,0,0,0-2.08,8.49,17.32,17.32,0,0,0,2.08,8.48,15.42,15.42,0,0,0,5.66,6A15.1,15.1,0,0,0,1334.46,195.9Z" fill="#3a7792"/>
      <path d="M1379.91,147.27a5.89,5.89,0,1,1,4.11-1.73A5.62,5.62,0,0,1,1379.91,147.27Zm0,56.23a4.38,4.38,0,0,1-4.51-4.51V159.65a4.3,4.3,0,0,1,1.28-3.27,4.49,4.49,0,0,1,7.74,3.27V199a4.48,4.48,0,0,1-1.24,3.23A4.33,4.33,0,0,1,1379.91,203.5Z" fill="#3a7792"/>
    </g>
  </g>
</svg>
